# xmcd
#
# Track frame offsets:
#	150
#	31474
#	51780
#	69694
#	91837
#	110547
#	141689
#	157973
#	183789
#	214979
#
# Disc length: 3073 seconds
#
# Revision: 1
# Processed by: cddbd v1.5.2PL0 Copyright (c) Steve Scherf et al.
# Submitted via: audiograbber 1.83.01
#
DISCID=8f0bff0a
DTITLE=Stoney And Sparrow - Live at the Oasis Disc 2
DYEAR=1900
DGENRE=
TTITLE0=Hey Hey Jerry Jeff
TTITLE1=Ande's Song
TTITLE2=My Daddy Was a Music Man
TTITLE3=Won't Somebody Sing a Song about New Jersey
TTITLE4=I Still Miss Someone
TTITLE5=I'll Fly Away
TTITLE6=A Beautiful Live
TTITLE7=Lord, Let me Live by the Hudson
TTITLE8=Farewell Farewell Until we Meet Again
TTITLE9=Will The Circle Be Unbroken?
EXTD=
EXTT0=
EXTT1=
EXTT2=
EXTT3=
EXTT4=
EXTT5=
EXTT6=
EXTT7=
EXTT8=
EXTT9=
PLAYORDER=
